<svg id="Layer_1" data-name="Layer 1" xmlns="http://www.w3.org/2000/svg" viewBox="0 0 60 60"><defs><style>.cls-1,.cls-5{fill:none;}.cls-1{stroke:#e9ebef;stroke-linecap:round;stroke-linejoin:round;stroke-width:8px;}.cls-2{fill:#fff;}.cls-3{fill:#075390;}.cls-4{fill:#458dc8;}.cls-6{fill:#fcfcfc;}</style></defs><title>python developer</title><line class="cls-1" x1="3.98" y1="56.03" x2="55.98" y2="56.03"/><path class="cls-2" d="M30,.64c-10,0-12.78,4.73-12.78,7.8v5H30v3.83H9.68c-4,0-7.8,3.32-7.8,11.5s3.83,11.5,7.8,11.5h7.54V33.87a5.13,5.13,0,0,1,5.11-5.11H37.67a5.13,5.13,0,0,0,5.11-5.11V8.44C42.78,5.24,40,.64,30,.64Z"/><path class="cls-3" d="M17.22,40.9H9.68c-3.89,0-8.44-3.18-8.44-12.14S5.78,16.62,9.68,16.62H29.36V14.06H17.22a.64.64,0,0,1-.64-.64v-5C16.58,5.3,19.41,0,30,0c9.91,0,13.42,4.54,13.42,8.44V23.65a5.76,5.76,0,0,1-5.75,5.75H22.33a4.48,4.48,0,0,0-4.47,4.47v6.39A.64.64,0,0,1,17.22,40.9Zm-7.54-23c-3.46,0-7.16,2.85-7.16,10.87s3.7,10.87,7.16,10.87h6.9V33.87a5.76,5.76,0,0,1,5.75-5.75H37.67a4.48,4.48,0,0,0,4.47-4.47V8.44C42.14,5.13,39,1.28,30,1.28c-9.59,0-12.14,4.5-12.14,7.16v4.35H30a.64.64,0,0,1,.64.64v3.83a.64.64,0,0,1-.64.64Z"/><path class="cls-4" d="M30,56.88c10,0,12.78-4.73,12.78-7.8v-5H30V40.27H50.32c4,0,7.8-3.32,7.8-11.5s-3.83-11.5-7.8-11.5H42.78v6.39a5.13,5.13,0,0,1-5.11,5.11H22.33a5.13,5.13,0,0,0-5.11,5.11V49.09c0,3.07,2.81,7.8,12.78,7.8Z"/><path class="cls-3" d="M30,57.52c-10.59,0-13.42-5.3-13.42-8.44V33.87a5.76,5.76,0,0,1,5.75-5.75H37.67a4.48,4.48,0,0,0,4.47-4.47V17.26a.64.64,0,0,1,.64-.64h7.54c3.89,0,8.44,3.18,8.44,12.14S54.22,40.9,50.32,40.9H30.64v2.56H42.78a.64.64,0,0,1,.64.64v5C43.42,52.22,40.59,57.52,30,57.52ZM22.33,29.4a4.48,4.48,0,0,0-4.47,4.47V49.09c0,2.66,2.56,7.16,12.14,7.16s12.14-4.5,12.14-7.16V44.74H30a.64.64,0,0,1-.64-.64V40.27a.64.64,0,0,1,.64-.64H50.32c3.46,0,7.16-2.85,7.16-10.87S53.79,17.9,50.32,17.9h-6.9v5.75a5.76,5.76,0,0,1-5.75,5.75Z"/><path class="cls-3" d="M23.61,5.93a2.56,2.56,0,1,1-2.56,2.56,2.56,2.56,0,0,1,2.56-2.56Z"/><path class="cls-3" d="M36.39,46.83a2.56,2.56,0,1,1-2.56,2.56,2.56,2.56,0,0,1,2.56-2.56Z"/><rect class="cls-5" x="0.6" y="-0.46" width="58.8" height="58.8"/><path class="cls-6" d="M21.48,44.14a1,1,0,0,1-1-1V34.39a1,1,0,0,1,2,0v8.75A1,1,0,0,1,21.48,44.14Z"/><path class="cls-6" d="M21.48,49.92a1,1,0,0,1-1-1V46.39a1,1,0,1,1,2,0v2.53A1,1,0,0,1,21.48,49.92Z"/><path class="cls-3" d="M39.48,17.14a1,1,0,0,1-1-1V7.39a1,1,0,0,1,2,0v8.75A1,1,0,0,1,39.48,17.14Z"/><path class="cls-3" d="M39.48,22.92a1,1,0,0,1-1-1V19.39a1,1,0,0,1,2,0v2.53A1,1,0,0,1,39.48,22.92Z"/></svg>